<svg xmlns="http://www.w3.org/2000/svg" width="256" height="256" xml:space="preserve"><g style="stroke:none;stroke-width:0;stroke-dasharray:none;stroke-linecap:butt;stroke-linejoin:miter;stroke-miterlimit:10;fill:none;fill-rule:nonzero;opacity:1"><path d="m45 51.815 45-33.87v-1.967a3.676 3.676 0 0 0-3.676-3.676H3.676A3.676 3.676 0 0 0 0 15.978v1.967l45 33.87z" style="stroke:none;stroke-width:1px;stroke-dasharray:none;stroke-linecap:butt;stroke-linejoin:miter;stroke-miterlimit:10;fill:#fff;fill-rule:nonzero;opacity:1" transform="matrix(2.81 0 0 2.81 1.407 1.407)"/><path d="M47.405 60.019a3.994 3.994 0 0 1-4.81 0L0 27.958v46.064a3.676 3.676 0 0 0 3.676 3.676h82.648A3.676 3.676 0 0 0 90 74.022V27.958L47.405 60.019z" style="stroke:none;stroke-width:1px;stroke-dasharray:none;stroke-linecap:butt;stroke-linejoin:miter;stroke-miterlimit:10;fill:#fff;fill-rule:nonzero;opacity:1" transform="matrix(2.81 0 0 2.81 1.407 1.407)"/></g></svg>